# Blender v2.80 (sub 41) OBJ File: ''
# www.blender.org
mtllib boulder3.mtl
o Cube_Cube.001
v -0.763165 0.546900 0.029877
v -0.395675 0.996592 0.331872
v -0.277973 1.082365 -0.257366
v -0.551316 0.565740 -0.328092
v 0.278742 0.516443 -0.528990
v 0.092786 0.953877 -0.332371
v 0.301908 0.881405 -0.374677
v 0.525151 0.740913 -0.553418
v 0.699016 0.740913 0.029877
v 0.570712 1.043257 -0.125698
v 0.075205 1.134532 0.204415
v 0.318347 1.036355 0.450525
v 0.278742 0.740913 0.557390
v -0.141379 0.916971 0.436179
v -0.408908 0.915795 0.651343
v -0.521586 0.845221 0.716216
v 0.278742 -1.000000 0.029877
v 1.454494 -1.000000 0.029877
v 1.371240 -1.000000 1.029665
v 0.278742 -1.000000 1.571880
v -0.027794 1.281398 0.163179
v 0.278742 -0.319950 1.000000
v -1.000000 -0.806613 1.000000
v -1.000000 -1.000000 1.641301
v 0.278742 -0.059087 1.000000
v -0.793809 -0.399027 0.853015
v 0.278742 0.340913 1.000000
v -0.813485 0.340913 0.731002
v 1.000000 -0.459087 0.029877
v 1.110094 -0.810799 1.163123
v 1.000000 -0.104334 -0.261745
v 1.000000 -0.364607 0.943949
v 1.088139 0.209645 0.029877
v 0.818723 -0.200361 0.850699
v 0.278742 -1.000000 -1.370099
v 0.278742 -0.571386 -1.000000
v 1.000000 -0.282643 -1.000000
v 1.000000 -1.000000 -1.394117
v 0.278742 -0.059087 -1.000000
v 0.896172 0.138958 -0.797669
v 0.278742 0.340913 -1.000000
v 0.742075 0.535275 -0.714938
v -1.679997 -1.000000 0.029877
v -1.000000 -0.459087 0.029877
v -1.000000 -0.386108 -1.000000
v -1.466458 -1.000000 -1.265424
v -1.095550 -0.059087 0.029877
v -0.731705 -0.059087 -0.749990
v -0.861755 0.340913 0.029877
v -0.628623 0.238885 -0.637417
vt 0.537035 0.544741
vt 0.541168 0.473328
vt 0.579251 0.516073
vt 0.595470 0.420922
vt 0.556451 0.426467
vt 0.569213 0.397773
vt 0.526644 0.414372
vt 0.488311 0.432801
vt 0.510694 0.387234
vt 0.458428 0.433744
vt 0.475094 0.493919
vt 0.469188 0.504845
vt 0.590986 0.510008
vt 0.448237 0.648364
vt 0.384362 0.497615
vt 0.500956 0.488717
vt 0.485096 0.469058
vt 0.515749 0.457465
vt 0.034207 0.448069
vt 0.272713 0.794410
vt 0.074821 0.838484
vt 0.273187 0.447283
vt 0.348808 0.683831
vt 0.328027 0.443044
vt 0.445768 0.569116
vt 0.392200 0.443563
vt 0.461374 0.199785
vt 0.171096 0.129661
vt 0.436450 0.021805
vt 0.291772 0.288091
vt 0.184350 0.223920
vt 0.529104 0.257882
vt 0.328362 0.326772
vt 0.494877 0.318839
vt 0.808688 0.355138
vt 0.859460 0.098186
vt 0.958141 0.309806
vt 0.707931 0.382516
vt 0.676988 0.231200
vt 0.647151 0.399727
vt 0.616652 0.308632
vt 0.589256 0.365708
vt 0.600917 0.979491
vt 0.792031 0.648805
vt 0.958141 0.797673
vt 0.557182 0.735514
vt 0.700910 0.581335
vt 0.548386 0.648083
vt 0.645766 0.539876
vt 0.542097 0.574473
vt 0.554097 0.445801
vt 0.776000 0.618099
vt 0.778579 0.521259
vt 0.778579 0.286567
vt 0.606728 0.247543
vt 0.507482 0.449605
vt 0.385337 0.325709
vt 0.581536 0.667555
vn -0.7803 0.5744 -0.2473
vn -0.7769 0.5977 -0.1980
vn -0.7714 0.4673 -0.4319
vn -0.3070 0.3871 -0.8694
vn -0.1779 0.3928 -0.9023
vn -0.4237 0.3754 -0.8243
vn 0.6590 0.6910 0.2969
vn 0.4575 0.8639 0.2107
vn 0.7842 0.5127 0.3496
vn 0.2770 0.8224 0.4969
vn 0.2489 0.5509 0.7966
vn 0.2295 0.4343 0.8710
vn 0.0000 -1.0000 -0.0000
vn 0.0373 0.8361 0.5473
vn 0.0194 0.8170 0.5763
vn -0.1240 0.6194 0.7752
vn -0.1708 0.7522 0.6364
vn -0.0805 0.8757 0.4761
vn 0.0157 0.9573 0.2887
vn -0.1403 0.0664 0.9879
vn -0.1528 0.3646 0.9185
vn -0.1534 0.4030 0.9023
vn -0.2201 0.0541 0.9740
vn -0.1956 0.1204 0.9733
vn -0.1823 0.1553 0.9709
vn 0.0647 0.5654 0.8223
vn -0.1061 0.3544 0.9290
vn -0.2359 0.1646 0.9577
vn 0.7371 0.6699 0.0887
vn 0.6773 0.7224 0.1394
vn 0.7641 0.6420 0.0636
vn 0.9993 0.0369 -0.0038
vn 0.9802 0.1969 -0.0203
vn 0.9732 0.2285 -0.0236
vn 0.9713 -0.1911 0.1418
vn 0.7449 0.6433 0.1769
vn 0.6136 0.7718 0.1666
vn 0.7650 0.4758 0.4340
vn 0.7488 0.4872 0.4495
vn 0.7039 0.5156 0.4886
vn -0.1124 0.5634 -0.8185
vn -0.1217 0.5530 -0.8242
vn -0.0252 0.6533 -0.7566
vn 0.0504 0.1626 -0.9854
vn 0.0895 0.2887 -0.9532
vn -0.0000 0.0000 -1.0000
vn 0.3438 0.1176 -0.9317
vn 0.3659 0.2105 -0.9065
vn 0.3114 0.0000 -0.9503
vn -0.2704 0.7551 -0.5973
vn -0.2829 0.7216 -0.6319
vn -0.1755 0.9225 -0.3438
vn -0.6873 0.7261 -0.0210
vn -0.7176 0.6938 -0.0602
vn -0.7630 0.6341 -0.1258
vn -0.9500 0.0319 -0.3105
vn -0.8841 0.4625 -0.0669
vn -0.7884 0.6136 0.0435
vn -0.8110 0.4593 -0.3624
vn -0.8159 0.4408 -0.3741
vn -0.8191 0.4278 -0.3822
vn -0.7959 0.4448 -0.4108
vn -0.7869 0.4905 -0.3744
vn -0.7802 0.5173 -0.3517
vn -0.8695 0.4872 0.0807
vn -0.8862 0.4579 0.0709
vn -0.9003 0.4309 0.0620
vn -0.9436 0.1883 0.2722
vn -0.9329 0.2943 0.2074
vn -0.9338 0.0339 0.3563
vn -0.9110 0.3596 0.2020
vn -0.9674 -0.0584 0.2466
vn -0.8510 0.4944 0.1771
vn -0.5735 0.7814 0.2462
vn -0.5923 0.7615 0.2633
vn -0.5647 0.7902 0.2383
vn 0.7062 0.6919 -0.1502
vn 0.7578 0.6389 -0.1326
vn 0.8013 0.5869 -0.1157
vn 0.9497 0.2654 -0.1660
vn 0.9410 0.1738 -0.2903
vn 0.9309 0.3650 -0.0146
vn 0.9815 0.1863 -0.0450
vn 0.9975 0.0681 -0.0164
vn 1.0000 0.0000 0.0000
vn 0.9310 0.3076 -0.1966
vn 0.8769 0.4776 -0.0543
vn 0.9396 0.1648 -0.2999
vn -0.1400 0.9246 -0.3543
vn -0.3673 0.9060 -0.2103
vn 0.1880 0.8398 -0.5093
vn 0.4988 0.6818 -0.5351
vn 0.7603 0.4895 -0.4270
vn 0.9276 0.2514 -0.2765
vn -0.6517 0.7539 0.0834
vn -0.7315 0.6812 0.0287
vn -0.7732 0.6342 -0.0035
vn 0.0970 0.8121 -0.5754
vn 0.0924 0.8181 -0.5675
vn 0.1339 0.7586 -0.6377
vn -0.1676 0.7822 -0.6000
vn -0.2128 0.8696 -0.4455
vn -0.2379 0.9101 -0.3392
vn -0.2558 0.3276 -0.9095
vn -0.3456 0.0848 -0.9345
vn -0.2190 0.4102 -0.8853
vn 0.0119 0.4574 -0.8892
vn -0.1640 0.1522 -0.9747
vn 0.0815 0.5623 -0.8229
vn -0.0259 0.4760 -0.8791
vn 0.0486 0.5880 -0.8074
vn -0.0540 0.4306 -0.9009
vn 0.5864 0.5279 0.6144
vn 0.2145 0.4006 0.8908
vn 0.6807 0.5435 0.4912
vn 0.3557 0.6260 0.6940
vn 0.2865 0.0868 0.9541
vn 0.3532 0.7253 0.5910
vn 0.0954 0.3917 0.9151
vn 0.0840 0.1146 0.9899
vn 0.0970 0.4580 0.8836
vn 0.4015 0.1770 0.8986
vn 0.2660 0.5466 0.7940
vn 0.4445 -0.0182 0.8956
vn 0.4499 0.5195 0.7264
vn 0.4564 0.5223 0.7204
vn 0.5302 0.5524 0.6432
vn -0.1740 0.5738 0.8003
vn -0.1876 0.6319 0.7520
vn -0.1204 0.3519 0.9283
vn -0.1687 0.2694 -0.9481
vn -0.1751 0.2801 -0.9439
vn -0.2038 0.3280 -0.9224
vn -0.7545 0.6539 -0.0555
vn -0.0501 0.3916 -0.9187
vn 0.2598 0.9575 0.1253
vn 0.2754 0.8964 0.3474
vn 0.1953 0.9488 0.2481
vn -0.2379 0.6251 0.7434
vn -0.1358 -0.0000 0.9907
vn -0.2391 0.0000 0.9710
vn 0.2239 0.7231 0.6535
vn 0.6342 0.7538 0.1723
vn 0.9219 -0.3688 0.1184
vn 0.7959 0.4523 0.4026
vn -0.1893 0.4728 -0.8606
vn 0.1415 0.4564 -0.8784
vn 0.3899 0.3310 -0.8593
vn -0.3653 0.3053 -0.8794
vn -0.6216 0.7814 0.0554
vn -0.8857 -0.2116 -0.4132
vn -0.8074 0.4719 -0.3542
vn -0.8032 0.3844 -0.4551
vn -0.8612 0.5010 0.0854
vn -0.8618 0.5037 0.0593
vn -0.9412 -0.2248 0.2522
vn -0.5994 0.7535 0.2699
vn 0.6030 0.7772 -0.1797
vn 0.9182 0.0985 -0.3836
vn 0.9613 0.2678 -0.0647
vn 0.7610 0.6394 0.1095
vn -0.6144 0.7890 -0.0079
vn 0.0475 0.8133 -0.5799
vn -0.4325 0.8782 0.2042
vn 0.0751 0.8402 -0.5370
vn -0.1292 0.6975 -0.7048
vn -0.3711 0.0000 -0.9286
vn -0.2402 0.0000 -0.9707
vn 0.0943 0.6506 -0.7535
vn 0.0666 0.3315 0.9411
vn 0.2665 0.0000 0.9638
vn 0.0775 -0.0000 0.9970
vn 0.2240 0.6273 0.7459
vn 0.3678 0.4814 0.7956
vn -0.2265 0.8068 0.5457
vn -0.1271 0.2003 -0.9715
usemtl Material.002
s 1
f 1/1/1 3/2/2 4/3/3
f 5/4/4 7/5/5 8/6/6
f 10/7/7 12/8/8 9/9/9
f 13/10/10 15/11/11 16/12/12
f 17/13/13 19/14/13 20/15/13
f 2/16/14 14/17/15 21/18/16
f 20/19/17 23/20/18 24/21/19
f 22/22/20 26/23/21 23/20/22
f 25/24/23 28/25/24 26/23/25
f 27/26/26 16/12/27 28/25/28
f 29/27/29 19/28/30 18/29/31
f 29/27/32 32/30/33 30/31/34
f 31/32/35 34/33/36 32/30/37
f 9/9/38 34/33/39 33/34/40
f 36/35/41 38/36/42 35/37/43
f 39/38/44 37/39/45 36/35/46
f 41/40/47 40/41/48 39/38/49
f 5/4/50 42/42/51 41/40/52
f 43/43/53 45/44/54 46/45/55
f 44/46/56 48/47/57 45/44/58
f 47/48/59 50/49/60 48/47/61
f 49/50/62 4/3/63 50/49/64
f 28/25/65 1/1/66 49/50/67
f 28/25/68 47/48/69 26/23/70
f 26/23/71 44/46/72 23/20/73
f 23/20/74 43/43/75 24/21/76
f 42/42/77 9/9/78 33/34/79
f 42/42/80 31/32/81 40/41/82
f 37/39/83 31/32/84 29/27/85
f 37/39/86 18/29/87 38/36/88
f 3/2/89 21/18/90 6/51/91
f 38/52/13 17/13/13 35/53/13
f 8/6/92 10/7/93 9/9/94
f 16/12/95 2/16/96 1/1/97
f 46/54/13 17/13/13 43/55/13
f 6/51/98 10/7/99 7/5/100
f 50/49/101 5/4/102 41/40/103
f 50/49/104 39/38/105 48/47/106
f 48/47/107 36/35/108 45/44/109
f 45/44/110 35/37/111 46/45/112
f 34/33/113 13/10/114 27/26/115
f 34/33/116 25/24/117 32/30/118
f 32/30/119 22/22/120 30/31/121
f 30/31/122 20/19/123 19/28/124
f 21/18/125 11/56/126 10/7/127
f 17/13/13 24/57/13 43/55/13
f 12/8/128 14/17/129 13/10/130
f 4/3/131 6/51/132 5/4/133
f 1/1/1 2/16/134 3/2/2
f 5/4/4 6/51/135 7/5/5
f 10/7/7 11/56/136 12/8/8
f 13/10/10 14/17/137 15/11/11
f 17/13/13 18/58/13 19/14/13
f 2/16/14 15/11/138 14/17/15
f 20/19/17 22/22/139 23/20/18
f 22/22/20 25/24/140 26/23/21
f 25/24/23 27/26/141 28/25/24
f 27/26/26 13/10/142 16/12/27
f 29/27/29 30/31/143 19/28/30
f 29/27/32 31/32/85 32/30/33
f 31/32/35 33/34/144 34/33/36
f 9/9/38 12/8/145 34/33/39
f 36/35/41 37/39/146 38/36/42
f 39/38/44 40/41/147 37/39/45
f 41/40/47 42/42/148 40/41/48
f 5/4/50 8/6/149 42/42/51
f 43/43/53 44/46/150 45/44/54
f 44/46/56 47/48/151 48/47/57
f 47/48/59 49/50/152 50/49/60
f 49/50/62 1/1/153 4/3/63
f 28/25/65 16/12/154 1/1/66
f 28/25/68 49/50/155 47/48/69
f 26/23/71 47/48/156 44/46/72
f 23/20/74 44/46/157 43/43/75
f 42/42/77 8/6/158 9/9/78
f 42/42/80 33/34/159 31/32/81
f 37/39/83 40/41/160 31/32/84
f 37/39/86 29/27/161 18/29/87
f 3/2/89 2/16/162 21/18/90
f 38/52/13 18/58/13 17/13/13
f 8/6/92 7/5/163 10/7/93
f 16/12/95 15/11/164 2/16/96
f 46/54/13 35/53/13 17/13/13
f 6/51/98 21/18/165 10/7/99
f 50/49/101 4/3/166 5/4/102
f 50/49/104 41/40/167 39/38/105
f 48/47/107 39/38/168 36/35/108
f 45/44/110 36/35/169 35/37/111
f 34/33/113 12/8/170 13/10/114
f 34/33/116 27/26/171 25/24/117
f 32/30/119 25/24/172 22/22/120
f 30/31/122 22/22/173 20/19/123
f 21/18/125 14/17/174 11/56/126
f 17/13/13 20/15/13 24/57/13
f 12/8/128 11/56/175 14/17/129
f 4/3/131 3/2/176 6/51/132
